# xmcd
#
# Track frame offsets: 
#        150
#        29360
#        43280
#        62797
#        87812
#        115405
#        140482
#        162900
#        172452
#        192470
#        215705
#        217932
#
# Disc length: 3090 seconds
#
# Revision: 1
# Processed by: cddbd v1.5.2PL0 Copyright (c) Steve Scherf et al.
# Submitted via: ExactAudioCopy v0.95b4
#
DISCID=bd0c100c
DTITLE=Shadows Of Steel - Twilight (EP) (Japanese Edition)
DYEAR=1998
DGENRE=Power Metal
TTITLE0=Hawk And Lion
TTITLE1=Twilight
TTITLE2=Goodbye
TTITLE3=Fly Away
TTITLE4=Welcome To Heaven
TTITLE5=Wings Of Glory
TTITLE6=Destination Unknown (Savage Grace Cover) 
TTITLE7=Prelusion (Exxplorer Cover) 
TTITLE8=Run For Tomorrow (Exxplorer Cover) 
TTITLE9=Painted Skies (Crimson Glory Cover) 
TTITLE10=The Calling (Agent Steel Cover) 
TTITLE11=Agents Of Steel (Agent Steel Cover) 
EXTD=
EXTT0=
EXTT1=
EXTT2=
EXTT3=
EXTT4=
EXTT5=
EXTT6=
EXTT7=
EXTT8=
EXTT9=
EXTT10=
EXTT11=
PLAYORDER=
